<svg width="300" height="270" viewBox="0 0 300 270" fill="none" xmlns="http://www.w3.org/2000/svg">
<path d="M0.5 0.5H299.5V269.5H200C89.8192 269.5 0.5 180.181 0.5 70V0.5Z" fill="#0093A1" stroke="#0093A1"/>
<path d="M91.7912 127L95.6548 103.727H111.882L111.109 108.295H100.507L99.7344 113.068H109.507L108.734 117.648H98.9616L98.1889 122.432H108.791L108.018 127H91.7912ZM135.212 103.727L131.348 127H126.575L119.564 113.568H119.405L117.166 127H111.541L115.405 103.727H120.246L127.2 117.136H127.393L129.598 103.727H135.212ZM148.203 103.727H153.749L151.089 119.841C150.832 121.348 150.26 122.663 149.374 123.784C148.487 124.905 147.366 125.777 146.01 126.398C144.654 127.011 143.15 127.318 141.499 127.318C140.052 127.318 138.775 127.064 137.669 126.557C136.563 126.049 135.745 125.261 135.214 124.193C134.684 123.125 134.559 121.758 134.839 120.091H140.43C140.355 120.697 140.381 121.208 140.51 121.625C140.646 122.042 140.877 122.356 141.203 122.568C141.536 122.78 141.964 122.886 142.487 122.886C143.033 122.886 143.51 122.769 143.919 122.534C144.336 122.299 144.68 121.951 144.953 121.489C145.233 121.027 145.434 120.462 145.555 119.795L148.203 103.727ZM177.257 115.727C176.833 118.235 176 120.352 174.757 122.08C173.522 123.799 172.018 125.102 170.246 125.989C168.481 126.875 166.583 127.318 164.553 127.318C162.409 127.318 160.553 126.841 158.984 125.886C157.416 124.932 156.276 123.542 155.564 121.716C154.859 119.89 154.723 117.674 155.155 115.068C155.564 112.561 156.386 110.439 157.621 108.705C158.863 106.97 160.375 105.655 162.155 104.761C163.943 103.86 165.859 103.409 167.905 103.409C170.034 103.409 171.878 103.89 173.439 104.852C175.007 105.814 176.143 107.212 176.848 109.045C177.553 110.879 177.689 113.106 177.257 115.727ZM171.632 115.068C171.867 113.606 171.867 112.375 171.632 111.375C171.405 110.375 170.958 109.621 170.291 109.114C169.625 108.598 168.757 108.341 167.689 108.341C166.507 108.341 165.439 108.633 164.484 109.216C163.537 109.792 162.746 110.633 162.109 111.739C161.473 112.837 161.03 114.167 160.78 115.727C160.522 117.205 160.515 118.436 160.757 119.42C161.007 120.405 161.473 121.148 162.155 121.648C162.837 122.14 163.704 122.386 164.757 122.386C165.931 122.386 166.988 122.102 167.928 121.534C168.867 120.966 169.651 120.136 170.28 119.045C170.916 117.955 171.367 116.629 171.632 115.068ZM179.839 103.727H186.124L189.419 113.466H189.658L196.169 103.727H202.453L191.374 119.227L190.078 127H184.487L185.794 119.227L179.839 103.727ZM70.0582 142.727H76.3423L79.6378 152.466H79.8764L86.3878 142.727H92.6719L81.5923 158.227L80.2969 166H74.706L76.0128 158.227L70.0582 142.727ZM113.476 154.727C113.052 157.235 112.218 159.352 110.976 161.08C109.741 162.799 108.237 164.102 106.464 164.989C104.699 165.875 102.802 166.318 100.771 166.318C98.6274 166.318 96.7713 165.841 95.2031 164.886C93.6349 163.932 92.4948 162.542 91.7827 160.716C91.0781 158.89 90.9418 156.674 91.3736 154.068C91.7827 151.561 92.6046 149.439 93.8395 147.705C95.0819 145.97 96.5933 144.655 98.3736 143.761C100.161 142.86 102.078 142.409 104.124 142.409C106.252 142.409 108.097 142.89 109.658 143.852C111.226 144.814 112.362 146.212 113.067 148.045C113.771 149.879 113.908 152.106 113.476 154.727ZM107.851 154.068C108.086 152.606 108.086 151.375 107.851 150.375C107.624 149.375 107.177 148.621 106.51 148.114C105.843 147.598 104.976 147.341 103.908 147.341C102.726 147.341 101.658 147.633 100.703 148.216C99.7562 148.792 98.9645 149.633 98.3281 150.739C97.6918 151.837 97.2486 153.167 96.9986 154.727C96.741 156.205 96.7334 157.436 96.9759 158.42C97.2259 159.405 97.6918 160.148 98.3736 160.648C99.0554 161.14 99.9228 161.386 100.976 161.386C102.15 161.386 103.207 161.102 104.146 160.534C105.086 159.966 105.87 159.136 106.499 158.045C107.135 156.955 107.586 155.629 107.851 154.068ZM132.828 142.727H138.442L135.953 157.739C135.665 159.473 135.002 160.985 133.964 162.273C132.934 163.553 131.62 164.545 130.021 165.25C128.423 165.947 126.643 166.295 124.68 166.295C122.711 166.295 121.048 165.947 119.692 165.25C118.336 164.545 117.355 163.553 116.749 162.273C116.143 160.985 115.98 159.473 116.26 157.739L118.749 142.727H124.374L121.953 157.25C121.824 158.053 121.885 158.769 122.135 159.398C122.393 160.019 122.809 160.511 123.385 160.875C123.961 161.231 124.665 161.409 125.499 161.409C126.339 161.409 127.108 161.231 127.805 160.875C128.502 160.511 129.078 160.019 129.533 159.398C129.987 158.769 130.279 158.053 130.408 157.25L132.828 142.727ZM138.104 166L141.967 142.727H151.581C153.323 142.727 154.778 143.042 155.945 143.67C157.111 144.292 157.941 145.186 158.433 146.352C158.926 147.511 159.039 148.886 158.774 150.477C158.517 152.083 157.941 153.451 157.047 154.58C156.161 155.701 155.017 156.557 153.615 157.148C152.221 157.739 150.638 158.034 148.865 158.034H142.786L143.536 153.602H148.57C149.411 153.602 150.138 153.492 150.751 153.273C151.365 153.045 151.854 152.705 152.217 152.25C152.589 151.788 152.835 151.197 152.956 150.477C153.07 149.758 153.017 149.163 152.797 148.693C152.585 148.216 152.21 147.86 151.672 147.625C151.142 147.383 150.46 147.261 149.626 147.261H146.854L143.729 166H138.104ZM152.967 155.364L157.001 166H150.865L146.956 155.364H152.967ZM166.416 166L170.28 142.727H175.905L172.814 161.432H182.496L181.723 166H166.416ZM194.124 142.727L190.26 166H184.635L188.499 142.727H194.124ZM193.791 166L197.655 142.727H213.541L212.768 147.295H202.507L201.734 152.068H210.984L210.212 156.648H200.962L199.416 166H193.791ZM212.51 166L216.374 142.727H232.601L231.828 147.295H221.226L220.453 152.068H230.226L229.453 156.648H219.68L218.908 161.432H229.51L228.737 166H212.51Z" fill="white"/>
</svg>
